# File created by Blade
# Date/Time:  Thu Jan 22 19:29:47 2015
#---------------------------------------------------------
:version 1.10
:name HOM
:units
  mass 1.0
  length 1.000000
  angle deg
:documentation
     Acclaim Skeleton File
:root
   axis xyz
   order TX TY TZ RX RY RZ
   position 0.000000 0.000000 0.000000
   orientation 0 0 0
:bonedata
   begin
      id 1
      name RightUpLeg_dum
      direction -1.000000 0.000000 0.000000
      length 4.478084
      axis 0.0 0.0 0.0 xyz
   end
   begin
      id 2
      name LeftUpLeg_dum
      direction 1.000000 0.000000 0.000000
      length 4.478084
      axis 0.0 0.0 0.0 xyz
   end
   begin
      id 3
      name Spine_dum
      direction 0.000000 1.000000 0.000000
      length 6.068208
      axis 0.0 0.0 0.0 xyz
   end
   begin
      id 4
      name RightUpLeg
      direction 0.000000 -1.000000 0.000000
      length 16.405774
      axis 0.0 0.0 0.0 xyz
      dof rx ry rz
   end
   begin
      id 5
      name RightLeg
      direction 0.000000 -1.000000 0.000000
      length 14.644143
      axis 0.0 0.0 0.0 xyz
      dof rx ry rz
   end
   begin
      id 6
      name RightFoot
      direction 0.000000 -0.258819 0.965926
      length 5.806150
      axis 15.0 0.0 0.0 xyz
      dof rx ry rz
   end
   begin
      id 7
      name RightToeBase
      direction 0.000000 0.000000 1.000000
      length 2.952750
      axis 0.0 0.0 0.0 xyz
      dof rx ry rz
   end
   begin
      id 8
      name LeftUpLeg
      direction 0.000000 -1.000000 0.000000
      length 16.405774
      axis 0.0 0.0 0.0 xyz
      dof rx ry rz
   end
   begin
      id 9
      name LeftLeg
      direction 0.000000 -1.000000 0.000000
      length 14.644143
      axis 0.0 0.0 0.0 xyz
      dof rx ry rz
   end
   begin
      id 10
      name LeftFoot
      direction 0.000000 -0.258819 0.965926
      length 5.806150
      axis 15.0 0.0 0.0 xyz
      dof rx ry rz
   end
   begin
      id 11
      name LeftToeBase
      direction 0.000000 0.000000 1.000000
      length 2.952750
      axis 0.0 0.0 0.0 xyz
      dof rx ry rz
   end
   begin
      id 12
      name Spine
      direction 0.000000 1.000000 0.000000
      length 0.000000
      axis 0.0 0.0 0.0 xyz
      dof rx ry rz
   end
   begin
      id 13
      name Spine_dum1
      direction 0.000000 1.000000 0.000000
      length 10.013923
      axis 0.0 0.0 0.0 xyz
   end
   begin
      id 14
      name Spine_dum2
      direction 0.000000 1.000000 0.000000
      length 10.013923
      axis 0.0 0.0 0.0 xyz
   end
   begin
      id 15
      name Spine_dum3
      direction 0.000000 1.000000 0.000000
      length 15.777476
      axis 0.0 0.0 0.0 xyz
   end
   begin
      id 16
      name RightShoulder
      direction -1.000000 0.000000 0.000000
      length 7.190220
      axis 0.0 0.0 90.0 xyz
      dof rx ry rz
   end
   begin
      id 17
      name RightArm
      direction -1.000000 0.000000 0.000000
      length 10.177469
      axis 0.0 0.0 90.0 xyz
      dof rx ry rz
   end
   begin
      id 18
      name RightForeArm
      direction -1.000000 0.000000 0.000000
      length 8.392114
      axis 0.0 0.0 90.0 xyz
      dof ry rz rx
   end
   begin
      id 19
      name RightHand
      direction -1.000000 0.000000 0.000000
      length 0.000000
      axis 0.0 0.0 90.0 xyz
      dof rx ry rz
   end
   begin
      id 20
      name RightHand_dum1
      direction -1.000000 0.000000 0.000000
      length 3.937000
      axis 0.0 0.0 90.0 xyz
   end
   begin
      id 21
      name RightHand_dum2
      direction 0.000000 0.000000 0.000000
      length 0.000000
      axis 0.0 0.0 90.0 xyz
   end
   begin
      id 22
      name RightHandThumb1
      direction 0.000000 0.000000 1.000000
      length 3.937000
      axis 0.0 0.0 90.0 xyz
      dof rx rz ry
   end
   begin
      id 23
      name LeftShoulder
      direction 1.000000 0.000000 0.000000
      length 7.190220
      axis 0.0 0.0 -90.0 xyz
      dof rx ry rz
   end
   begin
      id 24
      name LeftArm
      direction 1.000000 0.000000 0.000000
      length 10.177469
      axis 0.0 0.0 -90.0 xyz
      dof rx ry rz
   end
   begin
      id 25
      name LeftForeArm
      direction 1.000000 0.000000 0.000000
      length 8.392114
      axis 0.0 0.0 -90.0 xyz
      dof ry rz rx
   end
   begin
      id 26
      name LeftHand
      direction 1.000000 0.000000 0.000000
      length 0.000000
      axis 0.0 0.0 -90.0 xyz
      dof rx ry rz
   end
   begin
      id 27
      name LeftHand_dum1
      direction 1.000000 0.000000 0.000000
      length 3.937000
      axis 0.0 0.0 -90.0 xyz
   end
   begin
      id 28
      name LeftHand_dum2
      direction 0.000000 0.000000 0.000000
      length 0.000000
      axis 0.0 0.0 -90.0 xyz
   end
   begin
      id 29
      name LeftHandThumb1
      direction 0.000000 0.000000 1.000000
      length 3.937000
      axis 0.0 0.0 -90.0 xyz
      dof rx rz ry
   end
   begin
      id 30
      name Head
      direction 0.000000 1.000000 0.000000
      length 4.527550
      axis 0.0 0.0 0.0 xyz
      dof rx ry rz
   end
:hierarchy
   begin
      root RightUpLeg_dum LeftUpLeg_dum Spine_dum
      RightUpLeg_dum RightUpLeg
      LeftUpLeg_dum LeftUpLeg
      Spine_dum Spine
      RightUpLeg RightLeg
      RightLeg RightFoot
      RightFoot RightToeBase
      LeftUpLeg LeftLeg
      LeftLeg LeftFoot
      LeftFoot LeftToeBase
      Spine Spine_dum1 Spine_dum2 Spine_dum3
      Spine_dum1 RightShoulder
      Spine_dum2 LeftShoulder
      Spine_dum3 Head
      RightShoulder RightArm
      RightArm RightForeArm
      RightForeArm RightHand
      RightHand RightHand_dum1 RightHand_dum2
      RightHand_dum2 RightHandThumb1
      LeftShoulder LeftArm
      LeftArm LeftForeArm
      LeftForeArm LeftHand
      LeftHand LeftHand_dum1 LeftHand_dum2
      LeftHand_dum2 LeftHandThumb1
   end

# File created by Blade
# Date/Time:  Thu Jan 22 19:29:39 2015
# Frame Rate: 120.000 fps
#------------------------------------------------------
:FULLY-SPECIFIED
:DEGREES
719
root 0.970152 33.178229 1.546334 30.696159 -15.856498 -8.147851
RightUpLeg -19.261245 17.106561 -13.360746
RightLeg 156.917618 -0.000000 -0.000000
RightFoot 38.763450 12.683648 8.596467
RightToeBase -22.710848 -0.000000 0.000000
LeftUpLeg -34.644702 4.719519 -3.494104
LeftLeg 20.624987 -0.000000 -0.000000
LeftFoot -20.062212 11.016737 -3.072993
LeftToeBase 9.477070 -0.000000 -0.000000
Spine -3.685194 -12.990577 7.389275
RightShoulder -17.193288 -27.613547 -8.109565
RightArm 15.240874 -23.194019 76.018118
RightForeArm 4.770706 0.000000 12.131606
RightHand 0.500501 -0.000000 24.301957
RightHandThumb1 -24.326973 -0.000000 -32.862282
LeftShoulder -18.028347 -5.331021 35.904535
LeftArm 63.979156 -18.628261 -69.567787
LeftForeArm -11.181873 -0.000000 40.865152
LeftHand -7.360308 0.000000 22.190945
LeftHandThumb1 -26.253704 0.000000 33.147579
Head -0.596026 30.929586 -15.607369
720
root 0.985690 33.157856 1.517518 30.865542 -16.086933 -8.135222
RightUpLeg -19.167533 17.305032 -13.477466
RightLeg 156.916753 -0.000000 -0.000000
RightFoot 38.831113 12.699636 8.487648
RightToeBase -22.753707 -0.000000 0.000000
LeftUpLeg -34.781583 4.575997 -3.502405
LeftLeg 20.569933 -0.000000 -0.000000
LeftFoot -20.292484 11.280466 -3.241042
LeftToeBase 9.635750 -0.000000 -0.000000
Spine -3.655893 -12.868049 7.252654
RightShoulder -17.247674 -27.650473 -8.142840
RightArm 15.199619 -23.299931 76.027336
RightForeArm 4.737629 -0.000000 12.277538
RightHand 0.619899 -0.000000 23.865984
RightHandThumb1 -24.326973 -0.000000 -32.862282
LeftShoulder -18.127593 -5.223125 35.872656
LeftArm 64.081848 -18.832437 -69.560755
LeftForeArm -11.229013 -0.000000 41.312224
LeftHand -7.405281 0.000000 21.828020
LeftHandThumb1 -26.253704 0.000000 33.147579
Head -0.675027 30.993578 -15.688326
721
root 1.005600 33.142155 1.487963 31.054928 -16.345372 -8.117570
RightUpLeg -19.107933 17.410533 -13.613696
RightLeg 156.903552 -0.000000 -0.000000
RightFoot 38.860906 12.563787 8.367202
RightToeBase -22.784231 -0.000000 0.000000
LeftUpLeg -34.969315 4.529729 -3.561483
LeftLeg 20.554534 -0.000000 -0.000000
LeftFoot -20.449178 11.445661 -3.344739
LeftToeBase 9.673287 -0.000000 -0.000000
Spine -3.626367 -12.738330 7.095134
RightShoulder -17.379898 -27.748561 -8.072244
RightArm 15.352811 -23.891354 75.723684
RightForeArm 5.317691 -0.000000 12.472066
RightHand 0.442294 -0.000000 23.832287
RightHandThumb1 -24.326973 -0.000000 -32.862282
LeftShoulder -18.256548 -5.150869 35.892207
LeftArm 64.090812 -18.976249 -69.464700
LeftForeArm -11.229757 -0.000000 41.796324
LeftHand -7.425751 -0.000000 21.608797
LeftHandThumb1 -26.253704 0.000000 33.147579
Head -0.797436 31.047192 -15.769749
722
root 1.023603 33.132565 1.458116 31.268161 -16.562129 -8.100828
RightUpLeg -19.068903 17.551122 -13.772795
RightLeg 156.905722 -0.000000 -0.000000
RightFoot 38.789810 12.582038 8.428021
RightToeBase -22.689341 -0.000000 0.000000
LeftUpLeg -35.205112 4.475207 -3.604082
LeftLeg 20.565045 -0.000000 -0.000000
LeftFoot -20.540322 11.569182 -3.499750
LeftToeBase 9.545180 -0.000000 -0.000000
Spine -3.643348 -12.654260 6.984725
RightShoulder -17.374759 -27.794293 -8.125280
RightArm 15.269160 -23.913646 75.807542
RightForeArm 5.270465 -0.000000 12.627321
RightHand 0.442150 -0.000000 23.677631
RightHandThumb1 -24.326973 -0.000000 -32.862282
LeftShoulder -18.349309 -5.037095 35.872195
LeftArm 64.090575 -19.153481 -69.330321
LeftForeArm -11.258470 -0.000000 42.309191
LeftHand -7.549799 -0.000000 21.506103
LeftHandThumb1 -26.253704 0.000000 33.147579
Head -0.924116 31.125112 -15.932972
723
root 1.047160 33.128725 1.426209 31.504732 -16.800925 -8.063462
RightUpLeg -19.074839 17.635133 -13.958334
RightLeg 156.915689 -0.000000 -0.000000
RightFoot 38.793944 12.370781 8.504354
RightToeBase -22.689029 -0.000000 0.000000
LeftUpLeg -35.494061 4.468007 -3.701178
LeftLeg 20.589151 -0.000000 -0.000000
LeftFoot -20.551964 11.644961 -3.659633
LeftToeBase 9.473493 -0.000000 -0.000000
Spine -3.661278 -12.537289 6.853735
RightShoulder -17.403583 -27.855139 -8.157725
RightArm 15.172189 -23.829578 75.918680
RightForeArm 5.159342 -0.000000 12.839108
RightHand 0.220731 -0.000000 23.663203
RightHandThumb1 -24.326973 -0.000000 -32.862282
LeftShoulder -18.463757 -4.873276 35.855687
LeftArm 64.206513 -19.342636 -69.309358
LeftForeArm -11.312644 -0.000000 42.749925
LeftHand -7.635751 -0.000000 21.399680
LeftHandThumb1 -26.253704 0.000000 33.147579
Head -1.108976 31.186880 -16.162621
724
root 1.068665 33.129524 1.395827 31.732750 -17.024741 -8.047524
RightUpLeg -19.074889 17.613152 -14.084792
RightLeg 156.907675 -0.000000 -0.000000
RightFoot 38.827256 12.054378 8.628921
RightToeBase -22.857736 -0.000000 0.000000
LeftUpLeg -35.789875 4.540889 -3.799973
LeftLeg 20.651755 -0.000000 -0.000000
LeftFoot -20.531761 11.608299 -3.877446
LeftToeBase 9.208828 -0.000000 -0.000000
Spine -3.655314 -12.436164 6.753255
RightShoulder -17.417350 -27.927806 -8.190175
RightArm 15.103583 -23.809512 75.990335
RightForeArm 5.228562 -0.000000 13.004582
RightHand 0.328757 -0.000000 23.509511
RightHandThumb1 -24.326973 -0.000000 -32.862282
LeftShoulder -18.562954 -4.749917 35.835194
LeftArm 64.234134 -19.545913 -69.244956
LeftForeArm -11.373160 -0.000000 43.252264
LeftHand -7.767889 0.000000 21.191945
LeftHandThumb1 -26.253704 0.000000 33.147579
Head -1.318423 31.283388 -16.416112
725
root 1.083573 33.133848 1.364905 31.966395 -17.196961 -8.075441
RightUpLeg -19.055249 17.660434 -14.151503
RightLeg 156.948942 -0.000000 -0.000000
RightFoot 38.736881 12.132516 8.641285
RightToeBase -22.856746 -0.000000 0.000000
LeftUpLeg -36.099889 4.646287 -3.845997
LeftLeg 20.742142 -0.000000 -0.000000
LeftFoot -20.514330 11.500723 -4.017982
LeftToeBase 9.080658 -0.000000 -0.000000
Spine -3.653190 -12.373749 6.720467
RightShoulder -17.364897 -27.956598 -8.279138
RightArm 14.952053 -23.913299 76.106832
RightForeArm 5.084233 -0.000000 13.211397
RightHand 0.221527 -0.000000 23.841675
RightHandThumb1 -24.326973 -0.000000 -32.862282
LeftShoulder -18.664771 -4.594794 35.811497
LeftArm 64.317784 -19.777910 -69.264520
LeftForeArm -11.372006 -0.000000 43.685396
LeftHand -7.819161 -0.000000 20.839809
LeftHandThumb1 -26.253704 0.000000 33.147579
Head -1.534019 31.332095 -16.705775
726
root 1.102848 33.142059 1.333810 32.211915 -17.357113 -8.094978
RightUpLeg -19.041275 17.534978 -14.190460
RightLeg 156.971140 -0.000000 -0.000000
RightFoot 38.755579 11.938506 8.595202
RightToeBase -22.879745 -0.000000 0.000000
LeftUpLeg -36.416636 4.747090 -3.913189
LeftLeg 20.801078 -0.000000 -0.000000
LeftFoot -20.437590 11.421236 -4.077755
LeftToeBase 8.910662 -0.000000 -0.000000
Spine -3.648053 -12.317404 6.697728
RightShoulder -17.349144 -28.045473 -8.328152
RightArm 14.885876 -23.960859 76.152194
RightForeArm 5.293857 -0.000000 13.444724
RightHand 0.123974 -0.000000 23.637154
RightHandThumb1 -24.326973 -0.000000 -32.862282
LeftShoulder -18.765784 -4.439205 35.792241
LeftArm 64.433191 -20.033699 -69.363647
LeftForeArm -11.300001 0.000000 44.125259
LeftHand -7.919756 0.000000 20.401325
LeftHandThumb1 -26.253704 0.000000 33.147579
Head -1.771201 31.414586 -17.000008
727
root 1.114863 33.153303 1.302041 32.454909 -17.474228 -8.157801
RightUpLeg -18.986762 17.464601 -14.170224
RightLeg 157.019161 -0.000000 -0.000000
RightFoot 38.723357 11.983872 8.565810
RightToeBase -22.815351 -0.000000 0.000000
LeftUpLeg -36.701663 4.880551 -3.940312
LeftLeg 20.814438 -0.000000 -0.000000
LeftFoot -20.348992 11.321710 -4.059349
LeftToeBase 8.678536 -0.000000 -0.000000
Spine -3.627315 -12.286326 6.706347
RightShoulder -17.342358 -28.145660 -8.324776
RightArm 14.867758 -24.085106 76.121631
RightForeArm 5.573854 0.000000 13.628640
RightHand 0.120250 0.000000 23.939392
RightHandThumb1 -24.326973 -0.000000 -32.862282
LeftShoulder -18.846261 -4.278873 35.764496
LeftArm 64.536433 -20.300503 -69.339205
LeftForeArm -11.294607 -0.000000 44.559345
LeftHand -8.010190 -0.000000 20.001847
LeftHandThumb1 -26.253704 0.000000 33.147579
Head -2.019378 31.466010 -17.248661
728
root 1.127328 33.167236 1.270342 32.698505 -17.589818 -8.240215
RightUpLeg -18.942982 17.402741 -14.139935
RightLeg 157.067799 -0.000000 -0.000000
RightFoot 38.690255 12.051101 8.539766
RightToeBase -22.631327 -0.000000 0.000000
LeftUpLeg -36.948707 4.971594 -3.939441
LeftLeg 20.765632 -0.000000 -0.000000
LeftFoot -20.239097 11.330322 -3.984138
LeftToeBase 8.648664 -0.000000 -0.000000
Spine -3.593413 -12.232354 6.738929
RightShoulder -17.361382 -28.220288 -8.348767
RightArm 14.819105 -24.182550 76.144123
RightForeArm 5.846725 -0.000000 13.812384
RightHand 0.115135 0.000000 23.653564
RightHandThumb1 -24.326973 -0.000000 -32.862282
LeftShoulder -18.871346 -4.279451 35.769305
LeftArm 64.442803 -20.555188 -69.183141
LeftForeArm -11.327183 -0.000000 45.004162
LeftHand -8.129473 -0.000000 19.784383
LeftHandThumb1 -26.253704 0.000000 33.147579
Head -2.255277 31.446715 -17.518414
729
root 1.141804 33.181685 1.241993 32.928075 -17.697137 -8.334721
RightUpLeg -18.869204 17.357608 -14.107967
RightLeg 157.093265 -0.000000 -0.000000
RightFoot 38.691552 12.137110 8.513070
RightToeBase -22.587217 -0.000000 0.000000
LeftUpLeg -37.128668 5.003696 -3.919069
LeftLeg 20.618679 -0.000000 -0.000000
LeftFoot -20.113740 11.471125 -3.852590
LeftToeBase 8.542656 -0.000000 -0.000000
Spine -3.535794 -12.204499 6.794123
RightShoulder -17.347859 -28.214831 -8.418851
RightArm 14.674057 -24.282208 76.225368
RightForeArm 5.684144 -0.000000 13.995519
RightHand 0.191494 -0.000000 23.770036
RightHandThumb1 -24.326973 -0.000000 -32.862282
LeftShoulder -18.949683 -4.219913 35.739733
LeftArm 64.506581 -20.835284 -69.150477
LeftForeArm -11.279274 -0.000000 45.299406
LeftHand -8.179389 -0.000000 19.271542
LeftHandThumb1 -26.253704 0.000000 33.147579
Head -2.511391 31.514582 -17.764220
